<svg width="22" height="20" viewBox="0 0 22 20" fill="none" xmlns="http://www.w3.org/2000/svg">
<path d="M11 1.06641C12.1046 1.06641 13 1.96184 13 3.06641L13 17.0664C13 18.171 12.1046 19.0664 11 19.0664C9.89543 19.0664 9 18.171 9 17.0664L9 3.06641C9 1.96184 9.89543 1.06641 11 1.06641Z" stroke="white" stroke-width="1.5"/>
<path d="M3 10.0664C4.10457 10.0664 5 10.9618 5 12.0664L5 17.0664C5 18.171 4.10457 19.0664 3 19.0664C1.89543 19.0664 1 18.171 1 17.0664L1 12.0664C1 10.9618 1.89543 10.0664 3 10.0664Z" stroke="white" stroke-width="1.5"/>
<path d="M19 6.06641C20.1046 6.06641 21 6.96184 21 8.06641V17.0664C21 18.171 20.1046 19.0664 19 19.0664C17.8954 19.0664 17 18.171 17 17.0664V8.06641C17 6.96184 17.8954 6.06641 19 6.06641Z" stroke="white" stroke-width="1.5"/>
</svg>
